<svg width="140" height="40" viewBox="0 0 140 40" fill="none" xmlns="http://www.w3.org/2000/svg">
  <path d="M22.5 10C15.5964 10 10 15.5964 10 22.5C10 29.4036 15.5964 35 22.5 35C29.4036 35 35 29.4036 35 22.5C35 15.5964 29.4036 10 22.5 10ZM22.5 32C17.2534 32 13 27.7466 13 22.5C13 17.2534 17.2534 13 22.5 13C27.7466 13 32 17.2534 32 22.5C32 27.7466 27.7466 32 22.5 32Z" fill="#FF6B35"/>
  <path d="M22.5 17C19.4624 17 17 19.4624 17 22.5C17 25.5376 19.4624 28 22.5 28C25.5376 28 28 25.5376 28 22.5C28 19.4624 25.5376 17 22.5 17ZM22.5 26C20.567 26 19 24.433 19 22.5C19 20.567 20.567 19 22.5 19C24.433 19 26 20.567 26 22.5C26 24.433 24.433 26 22.5 26Z" fill="#FF6B35"/>
  <path d="M44.8 17.6H48.496C49.584 17.6 50.512 17.888 51.28 18.464C52.048 19.024 52.432 19.904 52.432 21.104C52.432 22.288 52.048 23.168 51.28 23.744C50.512 24.32 49.584 24.608 48.496 24.608H46.4V30H44.8V17.6ZM48.496 23.2C49.216 23.2 49.752 23.032 50.104 22.696C50.472 22.36 50.656 21.824 50.656 21.088C50.656 20.352 50.472 19.816 50.104 19.48C49.752 19.144 49.216 18.976 48.496 18.976H46.4V23.2H48.496Z" fill="#FF6B35"/>
  <path d="M61.6488 27.568C60.9288 29.056 59.7048 29.8 58.0168 29.8C56.8728 29.8 55.9208 29.424 55.1608 28.672C54.4168 27.904 54.0448 26.888 54.0448 25.624C54.0448 24.36 54.4168 23.344 55.1608 22.576C55.9208 21.808 56.8728 21.424 58.0168 21.424C59.7048 21.424 60.9288 22.168 61.6488 23.656V21.624H63.1288V30H61.6488V27.568ZM58.3088 28.504C59.0848 28.504 59.7368 28.24 60.2648 27.712C60.7928 27.184 61.0568 26.488 61.0568 25.624C61.0568 24.76 60.7928 24.064 60.2648 23.536C59.7368 23.008 59.0848 22.744 58.3088 22.744C57.5328 22.744 56.8888 23.008 56.3768 23.536C55.8648 24.064 55.6088 24.76 55.6088 25.624C55.6088 26.488 55.8648 27.184 56.3768 27.712C56.8888 28.24 57.5328 28.504 58.3088 28.504Z" fill="#FF6B35"/>
  <path d="M67.1183 23.224C67.6783 22.024 68.7743 21.424 70.4063 21.424V23.048H69.9903C69.0383 23.048 68.3183 23.288 67.8303 23.768C67.3583 24.248 67.1183 25.104 67.1183 26.336V30H65.6383V21.624H67.1183V23.224Z" fill="#FF6B35"/>
  <path d="M73.6525 21.624L76.3245 28.088L79.1165 21.624H80.7885L76.8205 30H75.8125L71.9565 21.624H73.6525Z" fill="#FF6B35"/>
  <path d="M91.0461 25.624C91.0461 26.888 90.6741 27.904 89.9301 28.672C89.1861 29.424 88.2421 29.8 87.0981 29.8C85.9541 29.8 85.0101 29.424 84.2661 28.672C83.5221 27.904 83.1501 26.888 83.1501 25.624C83.1501 24.36 83.5221 23.344 84.2661 22.576C85.0101 21.808 85.9541 21.424 87.0981 21.424C88.2421 21.424 89.1861 21.808 89.9301 22.576C90.6741 23.344 91.0461 24.36 91.0461 25.624ZM84.7141 25.624C84.7141 26.488 84.9781 27.184 85.5061 27.712C86.0341 28.24 86.6941 28.504 87.4861 28.504C88.2781 28.504 88.9301 28.24 89.4421 27.712C89.9701 27.184 90.2341 26.488 90.2341 25.624C90.2341 24.76 89.9701 24.064 89.4421 23.536C88.9301 23.008 88.2781 22.744 87.4861 22.744C86.6941 22.744 86.0341 23.008 85.5061 23.536C84.9781 24.064 84.7141 24.76 84.7141 25.624Z" fill="#FF6B35"/>
  <path d="M94.4734 23.224C95.0334 22.024 96.1294 21.424 97.7614 21.424V23.048H97.3454C96.3934 23.048 95.6734 23.288 95.1854 23.768C94.7134 24.248 94.4734 25.104 94.4734 26.336V30H92.9934V21.624H94.4734V23.224Z" fill="#FF6B35"/>
  <path d="M103.784 29.8C102.592 29.8 101.624 29.424 100.88 28.672C100.136 27.904 99.7638 26.888 99.7638 25.624C99.7638 24.36 100.136 23.344 100.88 22.576C101.624 21.808 102.592 21.424 103.784 21.424C104.672 21.424 105.432 21.648 106.064 22.096C106.712 22.544 107.168 23.16 107.432 23.944L106.032 24.416C105.872 23.904 105.6 23.496 105.216 23.192C104.832 22.888 104.352 22.736 103.784 22.736C103.032 22.736 102.4 23 101.888 23.528C101.376 24.056 101.12 24.752 101.12 25.624C101.12 26.48 101.376 27.168 101.888 27.696C102.4 28.224 103.032 28.488 103.784 28.488C104.352 28.488 104.832 28.336 105.216 28.032C105.616 27.728 105.904 27.312 106.08 26.784L107.448 27.256C107.168 28.024 106.704 28.648 106.064 29.128C105.432 29.576 104.672 29.8 103.784 29.8Z" fill="#FF6B35"/>
  <path d="M115.539 27.568C114.819 29.056 113.595 29.8 111.907 29.8C110.763 29.8 109.811 29.424 109.051 28.672C108.307 27.904 107.935 26.888 107.935 25.624C107.935 24.36 108.307 23.344 109.051 22.576C109.811 21.808 110.763 21.424 111.907 21.424C113.595 21.424 114.819 22.168 115.539 23.656V21.624H117.019V30H115.539V27.568ZM112.199 28.504C112.975 28.504 113.627 28.24 114.155 27.712C114.683 27.184 114.947 26.488 114.947 25.624C114.947 24.76 114.683 24.064 114.155 23.536C113.627 23.008 112.975 22.744 112.199 22.744C111.423 22.744 110.779 23.008 110.267 23.536C109.755 24.064 109.499 24.76 109.499 25.624C109.499 26.488 109.755 27.184 110.267 27.712C110.779 28.24 111.423 28.504 112.199 28.504Z" fill="#FF6B35"/>
  <path d="M126.019 17.6H127.723L131.195 27.088L134.699 17.6H136.403V30H134.867V20.528L131.611 30H130.811L127.555 20.528V30H126.019V17.6Z" fill="#FF6B35"/>
</svg>